<svg width="161" height="52" viewBox="0 0 161 52" fill="none" xmlns="http://www.w3.org/2000/svg">
<path d="M125.412 51.8386C131.972 51.8386 137.289 51.5863 137.289 51.2751C137.289 50.9639 131.972 50.7116 125.412 50.7116C118.853 50.7116 113.536 50.9639 113.536 51.2751C113.536 51.5863 118.853 51.8386 125.412 51.8386Z" fill="#888A85"/>
<path d="M52.4183 51.8386C58.9776 51.8386 64.295 51.5863 64.295 51.2751C64.295 50.9639 58.9776 50.7116 52.4183 50.7116C45.859 50.7116 40.5416 50.9639 40.5416 51.2751C40.5416 51.5863 45.859 51.8386 52.4183 51.8386Z" fill="#888A85"/>
<path d="M0.965698 30.9597L53.9269 14.3287L76.3263 1.71377L115.572 0.498657L141.273 13.1192L156.816 15.4374L159.95 21.8778L160.854 36.3402L155.908 42.6852H5.90458L0.965698 30.9597Z" class="body"  fill="#EDD400"/>
<path fill-rule="evenodd" clip-rule="evenodd" d="M14.2816 28.0553L3.19199 31.171L3.59516 32.9191L14.7855 32.3143L14.2816 28.0553Z" fill="#EEEEEC"/>
<path fill-rule="evenodd" clip-rule="evenodd" d="M155.527 16.3797L157.428 22.4273L155.146 22.5281L151.013 16.3797H155.527Z" fill="#CC0000"/>
<path fill-rule="evenodd" clip-rule="evenodd" d="M115.781 2.43195L115.493 11.544L130.026 11.3424L115.781 2.43195Z" fill="white"/>
<path fill-rule="evenodd" clip-rule="evenodd" d="M76.9402 3.3638L57.1221 16.1805L113.448 11.3425L113.733 2.51413L76.9402 3.3638Z" fill="white"/>
<path d="M52.0197 51.3543C60.159 51.3543 66.7572 44.7561 66.7572 36.6169C66.7572 28.4776 60.159 21.8794 52.0197 21.8794C43.8804 21.8794 37.2822 28.4776 37.2822 36.6169C37.2822 44.7561 43.8804 51.3543 52.0197 51.3543Z" fill="#2E3436"/>
<path d="M52.0197 44.2579C56.1551 44.2579 59.5076 40.9054 59.5076 36.77C59.5076 32.6345 56.1551 29.282 52.0197 29.282C47.8842 29.282 44.5318 32.6345 44.5318 36.77C44.5318 40.9054 47.8842 44.2579 52.0197 44.2579Z" fill="#888A85" stroke="#888A85" stroke-width="0.125977"/>
<path d="M125.534 51.3543C133.673 51.3543 140.271 44.7561 140.271 36.6169C140.271 28.4776 133.673 21.8794 125.534 21.8794C117.394 21.8794 110.796 28.4776 110.796 36.6169C110.796 44.7561 117.394 51.3543 125.534 51.3543Z" fill="#2E3436"/>
<path d="M125.534 44.2579C129.669 44.2579 133.022 40.9054 133.022 36.77C133.022 32.6345 129.669 29.282 125.534 29.282C121.398 29.282 118.046 32.6345 118.046 36.77C118.046 40.9054 121.398 44.2579 125.534 44.2579Z" fill="#888A85" stroke="#888A85" stroke-width="0.125977"/>
</svg>
