<svg width="149" height="57" viewBox="0 0 149 57" fill="none" xmlns="http://www.w3.org/2000/svg">
<path d="M114.412 56.0144C120.972 56.0144 126.289 55.7621 126.289 55.4509C126.289 55.1397 120.972 54.8874 114.412 54.8874C107.853 54.8874 102.536 55.1397 102.536 55.4509C102.536 55.7621 107.853 56.0144 114.412 56.0144Z" fill="#888A85"/>
<path d="M41.4183 56.0144C47.9776 56.0144 53.295 55.7621 53.295 55.4509C53.295 55.1397 47.9776 54.8874 41.4183 54.8874C34.859 54.8874 29.5416 55.1397 29.5416 55.4509C29.5416 55.7621 34.859 56.0144 41.4183 56.0144Z" fill="#888A85"/>
<path class="body" d="M5.38713 32.2124L42.5094 19.6938L62.825 7.19445L98.2795 0.0695801L119.402 16.0635L135.141 13.9431L148.447 33.3656L137.707 46.861H0.448242L5.38713 32.2124Z" fill="#75507B"/>
<path fill-rule="evenodd" clip-rule="evenodd" d="M18.6541 29.0128L7.10946 32.7262L5.49677 37.498L17.7959 35.5829L18.6541 29.0128Z" fill="#EEEEEC"/>
<path fill-rule="evenodd" clip-rule="evenodd" d="M134.246 15.2173L138.322 21.442L132.796 21.2282L130.23 15.93L134.246 15.2173Z" fill="#EF2929"/>
<path d="M41.0197 55.5302C49.159 55.5302 55.7572 48.932 55.7572 40.7927C55.7572 32.6534 49.159 26.0552 41.0197 26.0552C32.8804 26.0552 26.2822 32.6534 26.2822 40.7927C26.2822 48.932 32.8804 55.5302 41.0197 55.5302Z" fill="#2E3436"/>
<path d="M41.0197 48.1964C45.1551 48.1964 48.5076 44.8439 48.5076 40.7085C48.5076 36.573 45.1551 33.2206 41.0197 33.2206C36.8842 33.2206 33.5318 36.573 33.5318 40.7085C33.5318 44.8439 36.8842 48.1964 41.0197 48.1964Z" fill="#888A85" stroke="#888A85" stroke-width="0.125977"/>
<path d="M114.534 55.5302C122.673 55.5302 129.271 48.932 129.271 40.7927C129.271 32.6534 122.673 26.0552 114.534 26.0552C106.394 26.0552 99.7963 32.6534 99.7963 40.7927C99.7963 48.932 106.394 55.5302 114.534 55.5302Z" fill="#2E3436"/>
<path d="M114.534 48.1964C118.669 48.1964 122.022 44.8439 122.022 40.7085C122.022 36.573 118.669 33.2206 114.534 33.2206C110.398 33.2206 107.046 36.573 107.046 40.7085C107.046 44.8439 110.398 48.1964 114.534 48.1964Z" fill="#888A85" stroke="#888A85" stroke-width="0.125977"/>
<path fill-rule="evenodd" clip-rule="evenodd" d="M63.264 8.53986L45.9371 19.8035L93.9016 17.1584L96.181 1.65024L63.264 8.53986Z" fill="white"/>
<path fill-rule="evenodd" clip-rule="evenodd" d="M97.834 1.25385L95.7146 17.0159L113.685 16.8733L97.834 1.25385Z" fill="white"/>
</svg>
