<svg width="150" height="66" viewBox="0 0 150 66" fill="none" xmlns="http://www.w3.org/2000/svg">
<rect width="150" height="66" fill="#E5E5E5"/>
<g id="Cars_8_minimal_game_assets_monsterbraingames 1">
<g id="STANDARD">
<g id="shadows">
<path id="shadowBack" d="M113.964 65.4455C120.523 65.4455 125.841 65.1932 125.841 64.882C125.841 64.5708 120.523 64.3185 113.964 64.3185C107.405 64.3185 102.087 64.5708 102.087 64.882C102.087 65.1932 107.405 65.4455 113.964 65.4455Z" fill="#888A85"/>
<path id="shadowFront" d="M40.9701 65.4455C47.5294 65.4455 52.8468 65.1932 52.8468 64.882C52.8468 64.5708 47.5294 64.3185 40.9701 64.3185C34.4108 64.3185 29.0934 64.5708 29.0934 64.882C29.0934 65.1932 34.4108 65.4455 40.9701 65.4455Z" fill="#888A85"/>
</g>
<path class="body" d="M0 31.0715L14.4192 27.5518L42.4786 27.9356L57.3186 0L96.9673 9.16664L110.271 27.9356H149.802V56.2921H0V31.0715Z" fill="#3465A4"/>
<g id="lights">
<path id="lightBack" fill-rule="evenodd" clip-rule="evenodd" d="M147.909 29.281L149.206 35.9334H143.395V29.281H147.909Z" fill="#CC0000"/>
<path id="lightFront" fill-rule="evenodd" clip-rule="evenodd" d="M13.813 29.4661L1.97613 32.1057L1.19214 40.3775H7.46981L13.813 29.4661Z" fill="white"/>
</g>
<g id="windows">
<path id="windowBack" fill-rule="evenodd" clip-rule="evenodd" d="M63.3753 5.68179C63.3753 5.68179 63.9883 27.9949 64.7239 27.8723C65.4595 27.7497 105.427 27.8723 105.427 27.8723L95.7327 11.0813L63.3753 5.68179Z" fill="white"/>
<path id="windowFront" fill-rule="evenodd" clip-rule="evenodd" d="M58.4713 3.84277L46.0887 27.8723H60.9233L58.4713 3.84277Z" fill="white"/>
</g>
<g id="wheels">
<g id="wheelBack">
<path id="circle3357" d="M114.086 64.9612C122.225 64.9612 128.823 58.363 128.823 50.2237C128.823 42.0844 122.225 35.4862 114.086 35.4862C105.946 35.4862 99.348 42.0844 99.348 50.2237C99.348 58.363 105.946 64.9612 114.086 64.9612Z" fill="#2E3436"/>
<path id="circle3468" d="M114.086 57.7116C118.221 57.7116 121.573 54.3592 121.573 50.2237C121.573 46.0883 118.221 42.7358 114.086 42.7358C109.95 42.7358 106.598 46.0883 106.598 50.2237C106.598 54.3592 109.95 57.7116 114.086 57.7116Z" fill="#888A85" stroke="#888A85" stroke-width="0.125977"/>
</g>
<g id="wheelFront">
<path id="path3355" d="M40.5715 64.9612C48.7108 64.9612 55.309 58.363 55.309 50.2237C55.309 42.0844 48.7108 35.4862 40.5715 35.4862C32.4322 35.4862 25.834 42.0844 25.834 50.2237C25.834 58.363 32.4322 64.9612 40.5715 64.9612Z" fill="#2E3436"/>
<path id="circle3466" d="M40.5714 57.7116C44.7069 57.7116 48.0593 54.3592 48.0593 50.2237C48.0593 46.0883 44.7069 42.7358 40.5714 42.7358C36.436 42.7358 33.0835 46.0883 33.0835 50.2237C33.0835 54.3592 36.436 57.7116 40.5714 57.7116Z" fill="#888A85" stroke="#888A85" stroke-width="0.125977"/>
</g>
</g>
</g>
</g>
</svg>
