<svg width="151" height="55" viewBox="0 0 151 55" fill="none" xmlns="http://www.w3.org/2000/svg">
<path d="M114.158 54.0144C120.718 54.0144 126.035 53.7621 126.035 53.4509C126.035 53.1397 120.718 52.8874 114.158 52.8874C107.599 52.8874 102.282 53.1397 102.282 53.4509C102.282 53.7621 107.599 54.0144 114.158 54.0144Z" fill="#888A85"/>
<path d="M41.1644 54.0144C47.7237 54.0144 53.041 53.7621 53.041 53.4509C53.041 53.1397 47.7237 52.8874 41.1644 52.8874C34.605 52.8874 29.2877 53.1397 29.2877 53.4509C29.2877 53.7621 34.605 54.0144 41.1644 54.0144Z" fill="#888A85"/>
<path class="body" d="M3.92361 20.3404L42.6729 18.0725L55.7993 0.0594177L107.585 0.154623L120.586 18.0725H148.571L150.121 21.4958L149.997 44.861H0.194244V23.2619L3.92361 20.3404Z" fill="#E9B96E"/>
<path fill-rule="evenodd" clip-rule="evenodd" d="M12.6534 20.5549L5.09158 21.05L1.68979 25.2171L11.6958 25.1163L12.6534 20.5549Z" fill="white"/>
<path fill-rule="evenodd" clip-rule="evenodd" d="M147.943 18.8327L149.24 21.9321H143.429V18.8327H147.943Z" fill="#CC0000"/>
<path d="M40.7657 53.5302C48.905 53.5302 55.5032 46.932 55.5032 38.7927C55.5032 30.6534 48.905 24.0552 40.7657 24.0552C32.6264 24.0552 26.0282 30.6534 26.0282 38.7927C26.0282 46.932 32.6264 53.5302 40.7657 53.5302Z" fill="#2E3436"/>
<path d="M41.4537 46.1964C45.5892 46.1964 48.9417 42.8439 48.9417 38.7085C48.9417 34.573 45.5892 31.2206 41.4537 31.2206C37.3183 31.2206 33.9658 34.573 33.9658 38.7085C33.9658 42.8439 37.3183 46.1964 41.4537 46.1964Z" fill="#888A85" stroke="#888A85" stroke-width="0.125977"/>
<path d="M114.28 53.5302C122.419 53.5302 129.017 46.932 129.017 38.7927C129.017 30.6534 122.419 24.0552 114.28 24.0552C106.141 24.0552 99.5423 30.6534 99.5423 38.7927C99.5423 46.932 106.141 53.5302 114.28 53.5302Z" fill="#2E3436"/>
<path d="M114.968 46.1964C119.103 46.1964 122.456 42.8439 122.456 38.7085C122.456 34.573 119.103 31.2206 114.968 31.2206C110.832 31.2206 107.48 34.573 107.48 38.7085C107.48 42.8439 110.832 46.1964 114.968 46.1964Z" fill="#888A85" stroke="#888A85" stroke-width="0.125977"/>
<path fill-rule="evenodd" clip-rule="evenodd" d="M56.7505 1.78555L44.5695 18.3564H55.07L56.7505 1.78555Z" fill="white"/>
<path fill-rule="evenodd" clip-rule="evenodd" d="M82.1156 1.60861L82.6578 18.3563H113.181L106.006 1.66609L82.1156 1.60861Z" fill="white"/>
<path fill-rule="evenodd" clip-rule="evenodd" d="M58.0259 1.60863L57.8626 18.3563H79.5157L79.296 1.36374L58.0259 1.60863Z" fill="white"/>
</svg>
